solid ascii
  facet normal 4.261313e-002 9.990916e-001 -0.000000e+000
    outer loop
      vertex   3.936217e+002 -2.360000e+002 7.105427e-014
      vertex   3.936217e+002 -2.360000e+002 1.600000e+000
      vertex   3.938771e+002 -2.360109e+002 7.166127e-014
    endloop
  endfacet
  facet normal 4.261313e-002 9.990916e-001 0.000000e+000
    outer loop
      vertex   3.938771e+002 -2.360109e+002 7.166127e-014
      vertex   3.936217e+002 -2.360000e+002 1.600000e+000
      vertex   3.938771e+002 -2.360109e+002 1.600000e+000
    endloop
  endfacet
  facet normal 1.275299e-001 9.918347e-001 0.000000e+000
    outer loop
      vertex   3.941307e+002 -2.360435e+002 7.159772e-014
      vertex   3.938771e+002 -2.360109e+002 1.600000e+000
      vertex   3.941307e+002 -2.360435e+002 1.600000e+000
    endloop
  endfacet
  facet normal 2.115203e-001 9.773736e-001 0.000000e+000
    outer loop
      vertex   3.943806e+002 -2.360976e+002 7.153022e-014
      vertex   3.941307e+002 -2.360435e+002 1.600000e+000
      vertex   3.943806e+002 -2.360976e+002 1.600000e+000
    endloop
  endfacet
  facet normal 2.939744e-001 9.558133e-001 0.000000e+000
    outer loop
      vertex   3.946250e+002 -2.361727e+002 7.145927e-014
      vertex   3.943806e+002 -2.360976e+002 1.600000e+000
      vertex   3.946250e+002 -2.361727e+002 1.600000e+000
    endloop
  endfacet
  facet normal 3.742931e-001 9.273104e-001 0.000000e+000
    outer loop
      vertex   3.948621e+002 -2.362684e+002 7.138538e-014
      vertex   3.946250e+002 -2.361727e+002 1.600000e+000
      vertex   3.948621e+002 -2.362684e+002 1.600000e+000
    endloop
  endfacet
  facet normal 4.518932e-001 8.920720e-001 0.000000e+000
    outer loop
      vertex   3.950902e+002 -2.363840e+002 7.130908e-014
      vertex   3.948621e+002 -2.362684e+002 1.600000e+000
      vertex   3.950902e+002 -2.363840e+002 1.600000e+000
    endloop
  endfacet
  facet normal 5.262109e-001 8.503541e-001 0.000000e+000
    outer loop
      vertex   3.953076e+002 -2.365185e+002 7.123092e-014
      vertex   3.950902e+002 -2.363840e+002 1.600000e+000
      vertex   3.953076e+002 -2.365185e+002 1.600000e+000
    endloop
  endfacet
  facet normal 5.967066e-001 8.024595e-001 0.000000e+000
    outer loop
      vertex   3.955127e+002 -2.366711e+002 7.115149e-014
      vertex   3.953076e+002 -2.365185e+002 1.600000e+000
      vertex   3.955127e+002 -2.366711e+002 1.600000e+000
    endloop
  endfacet
  facet normal 6.628680e-001 7.487363e-001 0.000000e+000
    outer loop
      vertex   3.957042e+002 -2.368406e+002 7.107135e-014
      vertex   3.955127e+002 -2.366711e+002 1.600000e+000
      vertex   3.957042e+002 -2.368406e+002 1.600000e+000
    endloop
  endfacet
  facet normal 7.242146e-001 6.895746e-001 0.000000e+000
    outer loop
      vertex   3.958805e+002 -2.370257e+002 7.099109e-014
      vertex   3.957042e+002 -2.368406e+002 1.600000e+000
      vertex   3.958805e+002 -2.370257e+002 1.600000e+000
    endloop
  endfacet
  facet normal 7.803009e-001 6.254042e-001 0.000000e+000
    outer loop
      vertex   3.960404e+002 -2.372252e+002 7.091128e-014
      vertex   3.958805e+002 -2.370257e+002 1.600000e+000
      vertex   3.960404e+002 -2.372252e+002 1.600000e+000
    endloop
  endfacet
  facet normal 8.307195e-001 5.566912e-001 0.000000e+000
    outer loop
      vertex   3.961827e+002 -2.374376e+002 7.083252e-014
      vertex   3.960404e+002 -2.372252e+002 1.600000e+000
      vertex   3.961827e+002 -2.374376e+002 1.600000e+000
    endloop
  endfacet
  facet normal 8.751042e-001 4.839346e-001 8.591223e-015
    outer loop
      vertex   3.963065e+002 -2.376614e+002 7.075536e-014
      vertex   3.961827e+002 -2.374376e+002 1.600000e+000
      vertex   3.963065e+002 -2.376614e+002 1.600000e+000
    endloop
  endfacet
  facet normal 9.131325e-001 4.076629e-001 0.000000e+000
    outer loop
      vertex   3.964107e+002 -2.378949e+002 7.068038e-014
      vertex   3.963065e+002 -2.376614e+002 1.600000e+000
      vertex   3.964107e+002 -2.378949e+002 1.600000e+000
    endloop
  endfacet
  facet normal 9.445282e-001 3.284302e-001 0.000000e+000
    outer loop
      vertex   3.964947e+002 -2.381364e+002 7.060811e-014
      vertex   3.964107e+002 -2.378949e+002 1.600000e+000
      vertex   3.964947e+002 -2.381364e+002 1.600000e+000
    endloop
  endfacet
  facet normal 9.690634e-001 2.468119e-001 0.000000e+000
    outer loop
      vertex   3.965578e+002 -2.383841e+002 7.053908e-014
      vertex   3.964947e+002 -2.381364e+002 1.600000e+000
      vertex   3.965578e+002 -2.383841e+002 1.600000e+000
    endloop
  endfacet
  facet normal 9.865597e-001 1.634009e-001 0.000000e+000
    outer loop
      vertex   3.965995e+002 -2.386364e+002 7.105427e-014
      vertex   3.965578e+002 -2.383841e+002 1.600000e+000
      vertex   3.965995e+002 -2.386364e+002 1.600000e+000
    endloop
  endfacet
  facet normal 9.865597e-001 1.634009e-001 -0.000000e+000
    outer loop
      vertex   3.965995e+002 -2.386364e+002 7.105427e-014
      vertex   3.965578e+002 -2.383841e+002 7.053908e-014
      vertex   3.965578e+002 -2.383841e+002 1.600000e+000
    endloop
  endfacet
  facet normal 1.275299e-001 9.918347e-001 -0.000000e+000
    outer loop
      vertex   3.938771e+002 -2.360109e+002 7.166127e-014
      vertex   3.938771e+002 -2.360109e+002 1.600000e+000
      vertex   3.941307e+002 -2.360435e+002 7.159772e-014
    endloop
  endfacet
  facet normal 2.115203e-001 9.773736e-001 -0.000000e+000
    outer loop
      vertex   3.941307e+002 -2.360435e+002 7.159772e-014
      vertex   3.941307e+002 -2.360435e+002 1.600000e+000
      vertex   3.943806e+002 -2.360976e+002 7.153022e-014
    endloop
  endfacet
  facet normal 2.939744e-001 9.558133e-001 -0.000000e+000
    outer loop
      vertex   3.943806e+002 -2.360976e+002 7.153022e-014
      vertex   3.943806e+002 -2.360976e+002 1.600000e+000
      vertex   3.946250e+002 -2.361727e+002 7.145927e-014
    endloop
  endfacet
  facet normal 3.742931e-001 9.273104e-001 -0.000000e+000
    outer loop
      vertex   3.946250e+002 -2.361727e+002 7.145927e-014
      vertex   3.946250e+002 -2.361727e+002 1.600000e+000
      vertex   3.948621e+002 -2.362684e+002 7.138538e-014
    endloop
  endfacet
  facet normal 4.518932e-001 8.920720e-001 -0.000000e+000
    outer loop
      vertex   3.948621e+002 -2.362684e+002 7.138538e-014
      vertex   3.948621e+002 -2.362684e+002 1.600000e+000
      vertex   3.950902e+002 -2.363840e+002 7.130908e-014
    endloop
  endfacet
  facet normal 5.262109e-001 8.503541e-001 -0.000000e+000
    outer loop
      vertex   3.950902e+002 -2.363840e+002 7.130908e-014
      vertex   3.950902e+002 -2.363840e+002 1.600000e+000
      vertex   3.953076e+002 -2.365185e+002 7.123092e-014
    endloop
  endfacet
  facet normal 5.967066e-001 8.024595e-001 -0.000000e+000
    outer loop
      vertex   3.953076e+002 -2.365185e+002 7.123092e-014
      vertex   3.953076e+002 -2.365185e+002 1.600000e+000
      vertex   3.955127e+002 -2.366711e+002 7.115149e-014
    endloop
  endfacet
  facet normal 6.628680e-001 7.487363e-001 -0.000000e+000
    outer loop
      vertex   3.955127e+002 -2.366711e+002 7.115149e-014
      vertex   3.955127e+002 -2.366711e+002 1.600000e+000
      vertex   3.957042e+002 -2.368406e+002 7.107135e-014
    endloop
  endfacet
  facet normal 7.242146e-001 6.895746e-001 -0.000000e+000
    outer loop
      vertex   3.957042e+002 -2.368406e+002 7.107135e-014
      vertex   3.957042e+002 -2.368406e+002 1.600000e+000
      vertex   3.958805e+002 -2.370257e+002 7.099109e-014
    endloop
  endfacet
  facet normal 7.803009e-001 6.254042e-001 -0.000000e+000
    outer loop
      vertex   3.958805e+002 -2.370257e+002 7.099109e-014
      vertex   3.958805e+002 -2.370257e+002 1.600000e+000
      vertex   3.960404e+002 -2.372252e+002 7.091128e-014
    endloop
  endfacet
  facet normal 8.307195e-001 5.566912e-001 -0.000000e+000
    outer loop
      vertex   3.960404e+002 -2.372252e+002 7.091128e-014
      vertex   3.960404e+002 -2.372252e+002 1.600000e+000
      vertex   3.961827e+002 -2.374376e+002 7.083252e-014
    endloop
  endfacet
  facet normal 8.751042e-001 4.839346e-001 -0.000000e+000
    outer loop
      vertex   3.961827e+002 -2.374376e+002 7.083252e-014
      vertex   3.961827e+002 -2.374376e+002 1.600000e+000
      vertex   3.963065e+002 -2.376614e+002 7.075536e-014
    endloop
  endfacet
  facet normal 9.131325e-001 4.076629e-001 7.241549e-015
    outer loop
      vertex   3.963065e+002 -2.376614e+002 7.075536e-014
      vertex   3.963065e+002 -2.376614e+002 1.600000e+000
      vertex   3.964107e+002 -2.378949e+002 7.068038e-014
    endloop
  endfacet
  facet normal 9.445282e-001 3.284302e-001 -0.000000e+000
    outer loop
      vertex   3.964107e+002 -2.378949e+002 7.068038e-014
      vertex   3.964107e+002 -2.378949e+002 1.600000e+000
      vertex   3.964947e+002 -2.381364e+002 7.060811e-014
    endloop
  endfacet
  facet normal 9.690634e-001 2.468119e-001 -0.000000e+000
    outer loop
      vertex   3.964947e+002 -2.381364e+002 7.060811e-014
      vertex   3.964947e+002 -2.381364e+002 1.600000e+000
      vertex   3.965578e+002 -2.383841e+002 7.053908e-014
    endloop
  endfacet
  facet normal 0.000000e+000 1.000000e+000 -0.000000e+000
    outer loop
      vertex   3.936217e+002 -2.360000e+002 7.105427e-014
      vertex   3.565000e+002 -2.360000e+002 7.105427e-014
      vertex   3.936217e+002 -2.360000e+002 1.600000e+000
    endloop
  endfacet
  facet normal 0.000000e+000 1.000000e+000 -0.000000e+000
    outer loop
      vertex   3.936217e+002 -2.360000e+002 1.600000e+000
      vertex   3.565000e+002 -2.360000e+002 7.105427e-014
      vertex   3.565000e+002 -2.360000e+002 1.600000e+000
    endloop
  endfacet
  facet normal 2.419111e-015 1.005906e-015 -1.000000e+000
    outer loop
      vertex   3.938771e+002 -2.360109e+002 7.166127e-014
      vertex   3.966763e+002 -2.391744e+002 7.525057e-014
      vertex   3.936217e+002 -2.360000e+002 7.105427e-014
    endloop
  endfacet
  facet normal -8.979777e-015 -9.080227e-015 -1.000000e+000
    outer loop
      vertex   3.938771e+002 -2.360109e+002 7.166127e-014
      vertex   3.965995e+002 -2.386364e+002 7.105427e-014
      vertex   3.966763e+002 -2.391744e+002 7.525057e-014
    endloop
  endfacet
  facet normal -2.548464e-016 -3.306392e-017 -1.000000e+000
    outer loop
      vertex   3.938771e+002 -2.360109e+002 7.166127e-014
      vertex   3.941307e+002 -2.360435e+002 7.159772e-014
      vertex   3.965995e+002 -2.386364e+002 7.105427e-014
    endloop
  endfacet
  facet normal -2.830704e-016 -5.993798e-017 -1.000000e+000
    outer loop
      vertex   3.965995e+002 -2.386364e+002 7.105427e-014
      vertex   3.941307e+002 -2.360435e+002 7.159772e-014
      vertex   3.943806e+002 -2.360976e+002 7.153022e-014
    endloop
  endfacet
  facet normal -3.182218e-016 -9.066101e-017 -1.000000e+000
    outer loop
      vertex   3.946250e+002 -2.361727e+002 7.145927e-014
      vertex   3.965995e+002 -2.386364e+002 7.105427e-014
      vertex   3.943806e+002 -2.360976e+002 7.153022e-014
    endloop
  endfacet
  facet normal -3.626290e-016 -1.262530e-016 -1.000000e+000
    outer loop
      vertex   3.946250e+002 -2.361727e+002 7.145927e-014
      vertex   3.948621e+002 -2.362684e+002 7.138538e-014
      vertex   3.965995e+002 -2.386364e+002 7.105427e-014
    endloop
  endfacet
  facet normal -4.196893e-016 -1.681213e-016 -1.000000e+000
    outer loop
      vertex   3.965995e+002 -2.386364e+002 7.105427e-014
      vertex   3.948621e+002 -2.362684e+002 7.138538e-014
      vertex   3.950902e+002 -2.363840e+002 7.130908e-014
    endloop
  endfacet
  facet normal -4.945132e-016 -2.182631e-016 -1.000000e+000
    outer loop
      vertex   3.953076e+002 -2.365185e+002 7.123092e-014
      vertex   3.965995e+002 -2.386364e+002 7.105427e-014
      vertex   3.950902e+002 -2.363840e+002 7.130908e-014
    endloop
  endfacet
  facet normal -5.950725e-016 -2.796086e-016 -1.000000e+000
    outer loop
      vertex   3.953076e+002 -2.365185e+002 7.123092e-014
      vertex   3.955127e+002 -2.366711e+002 7.115149e-014
      vertex   3.965995e+002 -2.386364e+002 7.105427e-014
    endloop
  endfacet
  facet normal -7.343574e-016 -3.566335e-016 -1.000000e+000
    outer loop
      vertex   3.965995e+002 -2.386364e+002 7.105427e-014
      vertex   3.955127e+002 -2.366711e+002 7.115149e-014
      vertex   3.957042e+002 -2.368406e+002 7.107135e-014
    endloop
  endfacet
  facet normal -9.346971e-016 -4.565210e-016 -1.000000e+000
    outer loop
      vertex   3.958805e+002 -2.370257e+002 7.099109e-014
      vertex   3.965995e+002 -2.386364e+002 7.105427e-014
      vertex   3.957042e+002 -2.368406e+002 7.107135e-014
    endloop
  endfacet
  facet normal -1.237139e-015 -5.915445e-016 -1.000000e+000
    outer loop
      vertex   3.958805e+002 -2.370257e+002 7.099109e-014
      vertex   3.960404e+002 -2.372252e+002 7.091128e-014
      vertex   3.965995e+002 -2.386364e+002 7.105427e-014
    endloop
  endfacet
  facet normal -1.723997e-015 -7.844606e-016 -1.000000e+000
    outer loop
      vertex   3.965995e+002 -2.386364e+002 7.105427e-014
      vertex   3.960404e+002 -2.372252e+002 7.091128e-014
      vertex   3.961827e+002 -2.374376e+002 7.083252e-014
    endloop
  endfacet
  facet normal -2.580969e-015 -1.082446e-015 -1.000000e+000
    outer loop
      vertex   3.963065e+002 -2.376614e+002 7.075536e-014
      vertex   3.965995e+002 -2.386364e+002 7.105427e-014
      vertex   3.961827e+002 -2.374376e+002 7.083252e-014
    endloop
  endfacet
  facet normal -4.304563e-015 -1.600573e-015 -1.000000e+000
    outer loop
      vertex   3.963065e+002 -2.376614e+002 7.075536e-014
      vertex   3.964107e+002 -2.378949e+002 7.068038e-014
      vertex   3.965995e+002 -2.386364e+002 7.105427e-014
    endloop
  endfacet
  facet normal -8.637143e-015 -2.704043e-015 -1.000000e+000
    outer loop
      vertex   3.965995e+002 -2.386364e+002 7.105427e-014
      vertex   3.964107e+002 -2.378949e+002 7.068038e-014
      vertex   3.964947e+002 -2.381364e+002 7.060811e-014
    endloop
  endfacet
  facet normal -2.606040e-014 -6.358759e-015 -1.000000e+000
    outer loop
      vertex   3.965578e+002 -2.383841e+002 7.053908e-014
      vertex   3.965995e+002 -2.386364e+002 7.105427e-014
      vertex   3.964947e+002 -2.381364e+002 7.060811e-014
    endloop
  endfacet
  facet normal 1.919749e-015 5.253847e-016 -1.000000e+000
    outer loop
      vertex   3.966763e+002 -2.391744e+002 7.525057e-014
      vertex   3.967746e+002 -2.397088e+002 7.515849e-014
      vertex   3.936217e+002 -2.360000e+002 7.105427e-014
    endloop
  endfacet
  facet normal 2.071159e-015 6.540985e-016 -1.000000e+000
    outer loop
      vertex   3.936217e+002 -2.360000e+002 7.105427e-014
      vertex   3.967746e+002 -2.397088e+002 7.515849e-014
      vertex   3.968943e+002 -2.402389e+002 7.505975e-014
    endloop
  endfacet
  facet normal 2.275191e-015 8.116205e-016 -1.000000e+000
    outer loop
      vertex   3.970353e+002 -2.407638e+002 7.495453e-014
      vertex   3.936217e+002 -2.360000e+002 7.105427e-014
      vertex   3.968943e+002 -2.402389e+002 7.505975e-014
    endloop
  endfacet
  facet normal 2.556835e-015 1.013440e-015 -1.000000e+000
    outer loop
      vertex   3.970353e+002 -2.407638e+002 7.495453e-014
      vertex   3.971973e+002 -2.412825e+002 7.484299e-014
      vertex   3.936217e+002 -2.360000e+002 7.105427e-014
    endloop
  endfacet
  facet normal 2.961359e-015 1.287252e-015 -1.000000e+000
    outer loop
      vertex   3.936217e+002 -2.360000e+002 7.105427e-014
      vertex   3.971973e+002 -2.412825e+002 7.484299e-014
      vertex   3.973800e+002 -2.417943e+002 7.472530e-014
    endloop
  endfacet
  facet normal 3.579651e-015 1.688291e-015 -1.000000e+000
    outer loop
      vertex   3.975832e+002 -2.422984e+002 7.460167e-014
      vertex   3.936217e+002 -2.360000e+002 7.105427e-014
      vertex   3.973800e+002 -2.417943e+002 7.472530e-014
    endloop
  endfacet
  facet normal -1.713261e-015 -1.640827e-015 -1.000000e+000
    outer loop
      vertex   3.975832e+002 -2.422984e+002 7.460167e-014
      vertex   3.900000e+002 -2.740000e+002 1.396105e-013
      vertex   3.936217e+002 -2.360000e+002 7.105427e-014
    endloop
  endfacet
  facet normal -3.350823e-015 -1.249115e-015 -1.000000e+000
    outer loop
      vertex   3.975832e+002 -2.422984e+002 7.460167e-014
      vertex   3.978065e+002 -2.427938e+002 7.447229e-014
      vertex   3.900000e+002 -2.740000e+002 1.396105e-013
    endloop
  endfacet
  facet normal -3.152281e-015 -1.298781e-015 -1.000000e+000
    outer loop
      vertex   3.900000e+002 -2.740000e+002 1.396105e-013
      vertex   3.978065e+002 -2.427938e+002 7.447229e-014
      vertex   3.980495e+002 -2.432799e+002 7.433737e-014
    endloop
  endfacet
  facet normal -2.974193e-015 -1.345445e-015 -1.000000e+000
    outer loop
      vertex   3.983120e+002 -2.437557e+002 7.419713e-014
      vertex   3.900000e+002 -2.740000e+002 1.396105e-013
      vertex   3.980495e+002 -2.432799e+002 7.433737e-014
    endloop
  endfacet
  facet normal -2.812959e-015 -1.389757e-015 -1.000000e+000
    outer loop
      vertex   3.983120e+002 -2.437557e+002 7.419713e-014
      vertex   3.985933e+002 -2.442207e+002 7.405180e-014
      vertex   3.900000e+002 -2.740000e+002 1.396105e-013
    endloop
  endfacet
  facet normal -2.665738e-015 -1.432240e-015 -1.000000e+000
    outer loop
      vertex   3.900000e+002 -2.740000e+002 1.396105e-013
      vertex   3.985933e+002 -2.442207e+002 7.405180e-014
      vertex   3.988932e+002 -2.446739e+002 7.390161e-014
    endloop
  endfacet
  facet normal -2.530251e-015 -1.473327e-015 -1.000000e+000
    outer loop
      vertex   3.992110e+002 -2.451147e+002 7.374680e-014
      vertex   3.900000e+002 -2.740000e+002 1.396105e-013
      vertex   3.988932e+002 -2.446739e+002 7.390161e-014
    endloop
  endfacet
  facet normal -2.404648e-015 -1.513380e-015 -1.000000e+000
    outer loop
      vertex   3.992110e+002 -2.451147e+002 7.374680e-014
      vertex   3.995464e+002 -2.455424e+002 7.358763e-014
      vertex   3.900000e+002 -2.740000e+002 1.396105e-013
    endloop
  endfacet
  facet normal -2.287401e-015 -1.552711e-015 -1.000000e+000
    outer loop
      vertex   3.900000e+002 -2.740000e+002 1.396105e-013
      vertex   3.995464e+002 -2.455424e+002 7.358763e-014
      vertex   3.998987e+002 -2.459562e+002 7.342436e-014
    endloop
  endfacet
  facet normal -2.177239e-015 -1.591595e-015 -1.000000e+000
    outer loop
      vertex   4.002673e+002 -2.463555e+002 7.325725e-014
      vertex   3.900000e+002 -2.740000e+002 1.396105e-013
      vertex   3.998987e+002 -2.459562e+002 7.342436e-014
    endloop
  endfacet
  facet normal -2.073085e-015 -1.630279e-015 -1.000000e+000
    outer loop
      vertex   4.002673e+002 -2.463555e+002 7.325725e-014
      vertex   4.006517e+002 -2.467396e+002 7.308657e-014
      vertex   3.900000e+002 -2.740000e+002 1.396105e-013
    endloop
  endfacet
  facet normal -1.974019e-015 -1.668988e-015 -1.000000e+000
    outer loop
      vertex   3.900000e+002 -2.740000e+002 1.396105e-013
      vertex   4.006517e+002 -2.467396e+002 7.308657e-014
      vertex   4.010513e+002 -2.471079e+002 7.291259e-014
    endloop
  endfacet
  facet normal -1.879243e-015 -1.707936e-015 -1.000000e+000
    outer loop
      vertex   4.014653e+002 -2.474599e+002 7.273560e-014
      vertex   3.900000e+002 -2.740000e+002 1.396105e-013
      vertex   4.010513e+002 -2.471079e+002 7.291259e-014
    endloop
  endfacet
  facet normal -1.788057e-015 -1.747328e-015 -1.000000e+000
    outer loop
      vertex   4.014653e+002 -2.474599e+002 7.273560e-014
      vertex   4.018932e+002 -2.477949e+002 7.255589e-014
      vertex   3.900000e+002 -2.740000e+002 1.396105e-013
    endloop
  endfacet
  facet normal -1.699835e-015 -1.787368e-015 -1.000000e+000
    outer loop
      vertex   3.900000e+002 -2.740000e+002 1.396105e-013
      vertex   4.018932e+002 -2.477949e+002 7.255589e-014
      vertex   4.023343e+002 -2.481125e+002 7.237374e-014
    endloop
  endfacet
  facet normal -1.614014e-015 -1.828258e-015 -1.000000e+000
    outer loop
      vertex   4.027877e+002 -2.484120e+002 7.218946e-014
      vertex   3.900000e+002 -2.740000e+002 1.396105e-013
      vertex   4.023343e+002 -2.481125e+002 7.237374e-014
    endloop
  endfacet
  facet normal -1.530072e-015 -1.870208e-015 -1.000000e+000
    outer loop
      vertex   4.027877e+002 -2.484120e+002 7.218946e-014
      vertex   4.032529e+002 -2.486930e+002 7.200333e-014
      vertex   3.900000e+002 -2.740000e+002 1.396105e-013
    endloop
  endfacet
  facet normal -1.447524e-015 -1.913437e-015 -1.000000e+000
    outer loop
      vertex   3.900000e+002 -2.740000e+002 1.396105e-013
      vertex   4.032529e+002 -2.486930e+002 7.200333e-014
      vertex   4.037289e+002 -2.489551e+002 7.181567e-014
    endloop
  endfacet
  facet normal -1.365905e-015 -1.958179e-015 -1.000000e+000
    outer loop
      vertex   4.042152e+002 -2.491978e+002 7.162678e-014
      vertex   3.900000e+002 -2.740000e+002 1.396105e-013
      vertex   4.037289e+002 -2.489551e+002 7.181567e-014
    endloop
  endfacet
  facet normal -1.284764e-015 -2.004684e-015 -1.000000e+000
    outer loop
      vertex   4.042152e+002 -2.491978e+002 7.162678e-014
      vertex   4.047108e+002 -2.494207e+002 7.143695e-014
      vertex   3.900000e+002 -2.740000e+002 1.396105e-013
    endloop
  endfacet
  facet normal -1.203652e-015 -2.053230e-015 -1.000000e+000
    outer loop
      vertex   3.900000e+002 -2.740000e+002 1.396105e-013
      vertex   4.047108e+002 -2.494207e+002 7.143695e-014
      vertex   4.052150e+002 -2.496235e+002 7.124651e-014
    endloop
  endfacet
  facet normal -1.122114e-015 -2.104123e-015 -1.000000e+000
    outer loop
      vertex   4.057269e+002 -2.498059e+002 7.105576e-014
      vertex   3.900000e+002 -2.740000e+002 1.396105e-013
      vertex   4.052150e+002 -2.496235e+002 7.124651e-014
    endloop
  endfacet
  facet normal -1.039679e-015 -2.157708e-015 -1.000000e+000
    outer loop
      vertex   4.057269e+002 -2.498059e+002 7.105576e-014
      vertex   4.062458e+002 -2.499675e+002 7.086500e-014
      vertex   3.900000e+002 -2.740000e+002 1.396105e-013
    endloop
  endfacet
  facet normal -9.558495e-016 -2.214377e-015 -1.000000e+000
    outer loop
      vertex   3.900000e+002 -2.740000e+002 1.396105e-013
      vertex   4.062458e+002 -2.499675e+002 7.086500e-014
      vertex   4.067707e+002 -2.501081e+002 7.067455e-014
    endloop
  endfacet
  facet normal -8.700877e-016 -2.274576e-015 -1.000000e+000
    outer loop
      vertex   4.073009e+002 -2.502274e+002 7.048471e-014
      vertex   3.900000e+002 -2.740000e+002 1.396105e-013
      vertex   4.067707e+002 -2.501081e+002 7.067455e-014
    endloop
  endfacet
  facet normal -7.818031e-016 -2.338827e-015 -1.000000e+000
    outer loop
      vertex   4.073009e+002 -2.502274e+002 7.048471e-014
      vertex   4.078355e+002 -2.503253e+002 7.029580e-014
      vertex   3.900000e+002 -2.740000e+002 1.396105e-013
    endloop
  endfacet
  facet normal -6.903343e-016 -2.407736e-015 -1.000000e+000
    outer loop
      vertex   3.900000e+002 -2.740000e+002 1.396105e-013
      vertex   4.078355e+002 -2.503253e+002 7.029580e-014
      vertex   4.083735e+002 -2.504017e+002 7.010812e-014
    endloop
  endfacet
  facet normal -3.724360e-016 -2.788248e-016 -1.000000e+000
    outer loop
      vertex   4.235000e+002 -2.740000e+002 7.105427e-014
      vertex   4.083735e+002 -2.504017e+002 7.010812e-014
      vertex   4.089142e+002 -2.504563e+002 6.992197e-014
    endloop
  endfacet
  facet normal -3.560224e-016 -2.686563e-016 -1.000000e+000
    outer loop
      vertex   4.094567e+002 -2.504891e+002 6.973765e-014
      vertex   4.235000e+002 -2.740000e+002 7.105427e-014
      vertex   4.089142e+002 -2.504563e+002 6.992197e-014
    endloop
  endfacet
  facet normal 2.451570e-015 1.408349e-015 -1.000000e+000
    outer loop
      vertex   4.094567e+002 -2.504891e+002 6.973765e-014
      vertex   4.100000e+002 -2.505000e+002 7.105427e-014
      vertex   4.235000e+002 -2.740000e+002 7.105427e-014
    endloop
  endfacet
  facet normal 0.000000e+000 0.000000e+000 -1.000000e+000
    outer loop
      vertex   4.235000e+002 -2.740000e+002 7.105427e-014
      vertex   4.100000e+002 -2.505000e+002 7.105427e-014
      vertex   4.235000e+002 -2.530000e+002 7.105427e-014
    endloop
  endfacet
  facet normal 0.000000e+000 0.000000e+000 -1.000000e+000
    outer loop
      vertex   4.235000e+002 -2.530000e+002 7.105427e-014
      vertex   4.100000e+002 -2.505000e+002 7.105427e-014
      vertex   4.210000e+002 -2.505000e+002 7.105427e-014
    endloop
  endfacet
  facet normal 2.279590e-015 2.279590e-015 -1.000000e+000
    outer loop
      vertex   4.212307e+002 -2.505107e+002 7.155580e-014
      vertex   4.235000e+002 -2.530000e+002 7.105427e-014
      vertex   4.210000e+002 -2.505000e+002 7.105427e-014
    endloop
  endfacet
  facet normal -2.576832e-016 -3.344014e-017 -1.000000e+000
    outer loop
      vertex   4.212307e+002 -2.505107e+002 7.155580e-014
      vertex   4.214594e+002 -2.505426e+002 7.149793e-014
      vertex   4.235000e+002 -2.530000e+002 7.105427e-014
    endloop
  endfacet
  facet normal -2.880685e-016 -5.867176e-017 -1.000000e+000
    outer loop
      vertex   4.235000e+002 -2.530000e+002 7.105427e-014
      vertex   4.214594e+002 -2.505426e+002 7.149793e-014
      vertex   4.216842e+002 -2.505954e+002 7.143628e-014
    endloop
  endfacet
  facet normal -3.256411e-016 -8.704527e-017 -1.000000e+000
    outer loop
      vertex   4.219031e+002 -2.506688e+002 7.137137e-014
      vertex   4.235000e+002 -2.530000e+002 7.105427e-014
      vertex   4.216842e+002 -2.505954e+002 7.143628e-014
    endloop
  endfacet
  facet normal -3.727785e-016 -1.193352e-016 -1.000000e+000
    outer loop
      vertex   4.219031e+002 -2.506688e+002 7.137137e-014
      vertex   4.221143e+002 -2.507621e+002 7.130375e-014
      vertex   4.235000e+002 -2.530000e+002 7.105427e-014
    endloop
  endfacet
  facet normal -4.329403e-016 -1.565858e-016 -1.000000e+000
    outer loop
      vertex   4.235000e+002 -2.530000e+002 7.105427e-014
      vertex   4.221143e+002 -2.507621e+002 7.130375e-014
      vertex   4.223161e+002 -2.508745e+002 7.123401e-014
    endloop
  endfacet
  facet normal -5.113173e-016 -2.002415e-016 -1.000000e+000
    outer loop
      vertex   4.225066e+002 -2.510050e+002 7.116273e-014
      vertex   4.235000e+002 -2.530000e+002 7.105427e-014
      vertex   4.223161e+002 -2.508745e+002 7.123401e-014
    endloop
  endfacet
  facet normal -6.159850e-016 -2.523598e-016 -1.000000e+000
    outer loop
      vertex   4.225066e+002 -2.510050e+002 7.116273e-014
      vertex   4.226842e+002 -2.511525e+002 7.109053e-014
      vertex   4.235000e+002 -2.530000e+002 7.105427e-014
    endloop
  endfacet
  facet normal -7.600677e-016 -3.159785e-016 -1.000000e+000
    outer loop
      vertex   4.235000e+002 -2.530000e+002 7.105427e-014
      vertex   4.226842e+002 -2.511525e+002 7.109053e-014
      vertex   4.228475e+002 -2.513158e+002 7.101802e-014
    endloop
  endfacet
  facet normal -9.660655e-016 -3.957825e-016 -1.000000e+000
    outer loop
      vertex   4.229950e+002 -2.514934e+002 7.094581e-014
      vertex   4.235000e+002 -2.530000e+002 7.105427e-014
      vertex   4.228475e+002 -2.513158e+002 7.101802e-014
    endloop
  endfacet
  facet normal -1.275229e-015 -4.994038e-016 -1.000000e+000
    outer loop
      vertex   4.229950e+002 -2.514934e+002 7.094581e-014
      vertex   4.231255e+002 -2.516839e+002 7.087454e-014
      vertex   4.235000e+002 -2.530000e+002 7.105427e-014
    endloop
  endfacet
  facet normal -1.770063e-015 -6.401962e-016 -1.000000e+000
    outer loop
      vertex   4.235000e+002 -2.530000e+002 7.105427e-014
      vertex   4.231255e+002 -2.516839e+002 7.087454e-014
      vertex   4.232379e+002 -2.518857e+002 7.080479e-014
    endloop
  endfacet
  facet normal -2.636202e-015 -8.439101e-016 -1.000000e+000
    outer loop
      vertex   4.233312e+002 -2.520969e+002 7.073718e-014
      vertex   4.235000e+002 -2.530000e+002 7.105427e-014
      vertex   4.232379e+002 -2.518857e+002 7.080479e-014
    endloop
  endfacet
  facet normal -4.368673e-015 -1.167765e-015 -1.000000e+000
    outer loop
      vertex   4.233312e+002 -2.520969e+002 7.073718e-014
      vertex   4.234046e+002 -2.523158e+002 7.067227e-014
      vertex   4.235000e+002 -2.530000e+002 7.105427e-014
    endloop
  endfacet
  facet normal -8.700073e-015 -1.771970e-015 -1.000000e+000
    outer loop
      vertex   4.235000e+002 -2.530000e+002 7.105427e-014
      vertex   4.234046e+002 -2.523158e+002 7.067227e-014
      vertex   4.234574e+002 -2.525406e+002 7.061062e-014
    endloop
  endfacet
  facet normal -2.602599e-014 -3.377453e-015 -1.000000e+000
    outer loop
      vertex   4.234893e+002 -2.527693e+002 7.055275e-014
      vertex   4.235000e+002 -2.530000e+002 7.105427e-014
      vertex   4.234574e+002 -2.525406e+002 7.061062e-014
    endloop
  endfacet
  facet normal -2.046456e-015 -1.351868e-015 -1.000000e+000
    outer loop
      vertex   3.900000e+002 -2.740000e+002 1.396105e-013
      vertex   4.083735e+002 -2.504017e+002 7.010812e-014
      vertex   4.235000e+002 -2.740000e+002 7.105427e-014
    endloop
  endfacet
  facet normal 2.046456e-015 -3.061251e-030 -1.000000e+000
    outer loop
      vertex   3.565000e+002 -2.740000e+002 7.105427e-014
      vertex   3.565000e+002 -2.360000e+002 7.105427e-014
      vertex   3.900000e+002 -2.740000e+002 1.396105e-013
    endloop
  endfacet
  facet normal 0.000000e+000 -1.804112e-015 -1.000000e+000
    outer loop
      vertex   3.900000e+002 -2.740000e+002 1.396105e-013
      vertex   3.565000e+002 -2.360000e+002 7.105427e-014
      vertex   3.936217e+002 -2.360000e+002 7.105427e-014
    endloop
  endfacet
  facet normal 9.989330e-001 4.618346e-002 0.000000e+000
    outer loop
      vertex   4.235000e+002 -2.530000e+002 7.105427e-014
      vertex   4.234893e+002 -2.527693e+002 7.055275e-014
      vertex   4.235000e+002 -2.530000e+002 1.600000e+000
    endloop
  endfacet
  facet normal 9.989330e-001 4.618346e-002 -0.000000e+000
    outer loop
      vertex   4.235000e+002 -2.530000e+002 1.600000e+000
      vertex   4.234893e+002 -2.527693e+002 7.055275e-014
      vertex   4.234893e+002 -2.527693e+002 1.600000e+000
    endloop
  endfacet
  facet normal 9.904104e-001 1.381564e-001 0.000000e+000
    outer loop
      vertex   4.234893e+002 -2.527693e+002 1.600000e+000
      vertex   4.234893e+002 -2.527693e+002 7.055275e-014
      vertex   4.234574e+002 -2.525406e+002 7.061062e-014
    endloop
  endfacet
  facet normal 9.734381e-001 2.289505e-001 0.000000e+000
    outer loop
      vertex   4.234574e+002 -2.525406e+002 1.600000e+000
      vertex   4.234574e+002 -2.525406e+002 7.061062e-014
      vertex   4.234046e+002 -2.523158e+002 7.067227e-014
    endloop
  endfacet
  facet normal 9.481606e-001 3.177914e-001 0.000000e+000
    outer loop
      vertex   4.234046e+002 -2.523158e+002 1.600000e+000
      vertex   4.234046e+002 -2.523158e+002 7.067227e-014
      vertex   4.233312e+002 -2.520969e+002 7.073718e-014
    endloop
  endfacet
  facet normal 9.147939e-001 4.039210e-001 0.000000e+000
    outer loop
      vertex   4.233312e+002 -2.520969e+002 1.600000e+000
      vertex   4.233312e+002 -2.520969e+002 7.073718e-014
      vertex   4.232379e+002 -2.518857e+002 7.080479e-014
    endloop
  endfacet
  facet normal 8.736224e-001 4.866045e-001 0.000000e+000
    outer loop
      vertex   4.232379e+002 -2.518857e+002 1.600000e+000
      vertex   4.232379e+002 -2.518857e+002 7.080479e-014
      vertex   4.231255e+002 -2.516839e+002 7.087454e-014
    endloop
  endfacet
  facet normal 8.249975e-001 5.651364e-001 0.000000e+000
    outer loop
      vertex   4.231255e+002 -2.516839e+002 1.600000e+000
      vertex   4.231255e+002 -2.516839e+002 7.087454e-014
      vertex   4.229950e+002 -2.514934e+002 7.094581e-014
    endloop
  endfacet
  facet normal 7.693340e-001 6.388468e-001 0.000000e+000
    outer loop
      vertex   4.229950e+002 -2.514934e+002 1.600000e+000
      vertex   4.229950e+002 -2.514934e+002 7.094581e-014
      vertex   4.228475e+002 -2.513158e+002 7.101802e-014
    endloop
  endfacet
  facet normal 7.071068e-001 7.071068e-001 0.000000e+000
    outer loop
      vertex   4.228475e+002 -2.513158e+002 1.600000e+000
      vertex   4.228475e+002 -2.513158e+002 7.101802e-014
      vertex   4.226842e+002 -2.511525e+002 7.109053e-014
    endloop
  endfacet
  facet normal 6.388468e-001 7.693340e-001 0.000000e+000
    outer loop
      vertex   4.226842e+002 -2.511525e+002 1.600000e+000
      vertex   4.226842e+002 -2.511525e+002 7.109053e-014
      vertex   4.225066e+002 -2.510050e+002 7.116273e-014
    endloop
  endfacet
  facet normal 5.651364e-001 8.249975e-001 0.000000e+000
    outer loop
      vertex   4.225066e+002 -2.510050e+002 1.600000e+000
      vertex   4.225066e+002 -2.510050e+002 7.116273e-014
      vertex   4.223161e+002 -2.508745e+002 7.123401e-014
    endloop
  endfacet
  facet normal 4.866045e-001 8.736224e-001 0.000000e+000
    outer loop
      vertex   4.223161e+002 -2.508745e+002 1.600000e+000
      vertex   4.223161e+002 -2.508745e+002 7.123401e-014
      vertex   4.221143e+002 -2.507621e+002 7.130375e-014
    endloop
  endfacet
  facet normal 4.039210e-001 9.147939e-001 0.000000e+000
    outer loop
      vertex   4.221143e+002 -2.507621e+002 1.600000e+000
      vertex   4.221143e+002 -2.507621e+002 7.130375e-014
      vertex   4.219031e+002 -2.506688e+002 7.137137e-014
    endloop
  endfacet
  facet normal 3.177914e-001 9.481606e-001 0.000000e+000
    outer loop
      vertex   4.219031e+002 -2.506688e+002 1.600000e+000
      vertex   4.219031e+002 -2.506688e+002 7.137137e-014
      vertex   4.216842e+002 -2.505954e+002 7.143628e-014
    endloop
  endfacet
  facet normal 2.289505e-001 9.734381e-001 0.000000e+000
    outer loop
      vertex   4.216842e+002 -2.505954e+002 1.600000e+000
      vertex   4.216842e+002 -2.505954e+002 7.143628e-014
      vertex   4.214594e+002 -2.505426e+002 7.149793e-014
    endloop
  endfacet
  facet normal 1.381564e-001 9.904104e-001 0.000000e+000
    outer loop
      vertex   4.214594e+002 -2.505426e+002 1.600000e+000
      vertex   4.214594e+002 -2.505426e+002 7.149793e-014
      vertex   4.212307e+002 -2.505107e+002 7.155580e-014
    endloop
  endfacet
  facet normal 4.618346e-002 9.989330e-001 0.000000e+000
    outer loop
      vertex   4.212307e+002 -2.505107e+002 1.600000e+000
      vertex   4.212307e+002 -2.505107e+002 7.155580e-014
      vertex   4.210000e+002 -2.505000e+002 7.105427e-014
    endloop
  endfacet
  facet normal 4.618346e-002 9.989330e-001 0.000000e+000
    outer loop
      vertex   4.210000e+002 -2.505000e+002 1.600000e+000
      vertex   4.212307e+002 -2.505107e+002 1.600000e+000
      vertex   4.210000e+002 -2.505000e+002 7.105427e-014
    endloop
  endfacet
  facet normal 9.904104e-001 1.381564e-001 -0.000000e+000
    outer loop
      vertex   4.234893e+002 -2.527693e+002 1.600000e+000
      vertex   4.234574e+002 -2.525406e+002 7.061062e-014
      vertex   4.234574e+002 -2.525406e+002 1.600000e+000
    endloop
  endfacet
  facet normal 9.734381e-001 2.289505e-001 -0.000000e+000
    outer loop
      vertex   4.234574e+002 -2.525406e+002 1.600000e+000
      vertex   4.234046e+002 -2.523158e+002 7.067227e-014
      vertex   4.234046e+002 -2.523158e+002 1.600000e+000
    endloop
  endfacet
  facet normal 9.481606e-001 3.177914e-001 -0.000000e+000
    outer loop
      vertex   4.234046e+002 -2.523158e+002 1.600000e+000
      vertex   4.233312e+002 -2.520969e+002 7.073718e-014
      vertex   4.233312e+002 -2.520969e+002 1.600000e+000
    endloop
  endfacet
  facet normal 9.147939e-001 4.039210e-001 -0.000000e+000
    outer loop
      vertex   4.233312e+002 -2.520969e+002 1.600000e+000
      vertex   4.232379e+002 -2.518857e+002 7.080479e-014
      vertex   4.232379e+002 -2.518857e+002 1.600000e+000
    endloop
  endfacet
  facet normal 8.736224e-001 4.866045e-001 -0.000000e+000
    outer loop
      vertex   4.232379e+002 -2.518857e+002 1.600000e+000
      vertex   4.231255e+002 -2.516839e+002 7.087454e-014
      vertex   4.231255e+002 -2.516839e+002 1.600000e+000
    endloop
  endfacet
  facet normal 8.249975e-001 5.651364e-001 -0.000000e+000
    outer loop
      vertex   4.231255e+002 -2.516839e+002 1.600000e+000
      vertex   4.229950e+002 -2.514934e+002 7.094581e-014
      vertex   4.229950e+002 -2.514934e+002 1.600000e+000
    endloop
  endfacet
  facet normal 7.693340e-001 6.388468e-001 -0.000000e+000
    outer loop
      vertex   4.229950e+002 -2.514934e+002 1.600000e+000
      vertex   4.228475e+002 -2.513158e+002 7.101802e-014
      vertex   4.228475e+002 -2.513158e+002 1.600000e+000
    endloop
  endfacet
  facet normal 7.071068e-001 7.071068e-001 -0.000000e+000
    outer loop
      vertex   4.228475e+002 -2.513158e+002 1.600000e+000
      vertex   4.226842e+002 -2.511525e+002 7.109053e-014
      vertex   4.226842e+002 -2.511525e+002 1.600000e+000
    endloop
  endfacet
  facet normal 6.388468e-001 7.693340e-001 -0.000000e+000
    outer loop
      vertex   4.226842e+002 -2.511525e+002 1.600000e+000
      vertex   4.225066e+002 -2.510050e+002 7.116273e-014
      vertex   4.225066e+002 -2.510050e+002 1.600000e+000
    endloop
  endfacet
  facet normal 5.651364e-001 8.249975e-001 -0.000000e+000
    outer loop
      vertex   4.225066e+002 -2.510050e+002 1.600000e+000
      vertex   4.223161e+002 -2.508745e+002 7.123401e-014
      vertex   4.223161e+002 -2.508745e+002 1.600000e+000
    endloop
  endfacet
  facet normal 4.866045e-001 8.736224e-001 -0.000000e+000
    outer loop
      vertex   4.223161e+002 -2.508745e+002 1.600000e+000
      vertex   4.221143e+002 -2.507621e+002 7.130375e-014
      vertex   4.221143e+002 -2.507621e+002 1.600000e+000
    endloop
  endfacet
  facet normal 4.039210e-001 9.147939e-001 -0.000000e+000
    outer loop
      vertex   4.221143e+002 -2.507621e+002 1.600000e+000
      vertex   4.219031e+002 -2.506688e+002 7.137137e-014
      vertex   4.219031e+002 -2.506688e+002 1.600000e+000
    endloop
  endfacet
  facet normal 3.177914e-001 9.481606e-001 -0.000000e+000
    outer loop
      vertex   4.219031e+002 -2.506688e+002 1.600000e+000
      vertex   4.216842e+002 -2.505954e+002 7.143628e-014
      vertex   4.216842e+002 -2.505954e+002 1.600000e+000
    endloop
  endfacet
  facet normal 2.289505e-001 9.734381e-001 -0.000000e+000
    outer loop
      vertex   4.216842e+002 -2.505954e+002 1.600000e+000
      vertex   4.214594e+002 -2.505426e+002 7.149793e-014
      vertex   4.214594e+002 -2.505426e+002 1.600000e+000
    endloop
  endfacet
  facet normal 1.381564e-001 9.904104e-001 -0.000000e+000
    outer loop
      vertex   4.214594e+002 -2.505426e+002 1.600000e+000
      vertex   4.212307e+002 -2.505107e+002 7.155580e-014
      vertex   4.212307e+002 -2.505107e+002 1.600000e+000
    endloop
  endfacet
  facet normal 1.000000e+000 0.000000e+000 0.000000e+000
    outer loop
      vertex   4.235000e+002 -2.530000e+002 1.600000e+000
      vertex   4.235000e+002 -2.740000e+002 1.600000e+000
      vertex   4.235000e+002 -2.530000e+002 7.105427e-014
    endloop
  endfacet
  facet normal 1.000000e+000 0.000000e+000 0.000000e+000
    outer loop
      vertex   4.235000e+002 -2.530000e+002 7.105427e-014
      vertex   4.235000e+002 -2.740000e+002 1.600000e+000
      vertex   4.235000e+002 -2.740000e+002 7.105427e-014
    endloop
  endfacet
  facet normal 9.899858e-001 1.411668e-001 0.000000e+000
    outer loop
      vertex   3.965995e+002 -2.386364e+002 1.600000e+000
      vertex   3.966763e+002 -2.391744e+002 1.600000e+000
      vertex   3.965995e+002 -2.386364e+002 7.105427e-014
    endloop
  endfacet
  facet normal 9.899858e-001 1.411668e-001 0.000000e+000
    outer loop
      vertex   3.965995e+002 -2.386364e+002 7.105427e-014
      vertex   3.966763e+002 -2.391744e+002 1.600000e+000
      vertex   3.966763e+002 -2.391744e+002 7.525057e-014
    endloop
  endfacet
  facet normal 9.835022e-001 1.808964e-001 -0.000000e+000
    outer loop
      vertex   3.966763e+002 -2.391744e+002 7.525057e-014
      vertex   3.966763e+002 -2.391744e+002 1.600000e+000
      vertex   3.967746e+002 -2.397088e+002 1.600000e+000
    endloop
  endfacet
  facet normal 9.754247e-001 2.203329e-001 -0.000000e+000
    outer loop
      vertex   3.967746e+002 -2.397088e+002 7.515849e-014
      vertex   3.967746e+002 -2.397088e+002 1.600000e+000
      vertex   3.968943e+002 -2.402389e+002 1.600000e+000
    endloop
  endfacet
  facet normal 9.657667e-001 2.594123e-001 -0.000000e+000
    outer loop
      vertex   3.968943e+002 -2.402389e+002 7.505975e-014
      vertex   3.968943e+002 -2.402389e+002 1.600000e+000
      vertex   3.970353e+002 -2.407638e+002 1.600000e+000
    endloop
  endfacet
  facet normal 9.545436e-001 2.980714e-001 -0.000000e+000
    outer loop
      vertex   3.970353e+002 -2.407638e+002 7.495453e-014
      vertex   3.970353e+002 -2.407638e+002 1.600000e+000
      vertex   3.971973e+002 -2.412825e+002 1.600000e+000
    endloop
  endfacet
  facet normal 9.417737e-001 3.362475e-001 -0.000000e+000
    outer loop
      vertex   3.971973e+002 -2.412825e+002 7.484299e-014
      vertex   3.971973e+002 -2.412825e+002 1.600000e+000
      vertex   3.973800e+002 -2.417943e+002 1.600000e+000
    endloop
  endfacet
  facet normal 9.274776e-001 3.738787e-001 -0.000000e+000
    outer loop
      vertex   3.973800e+002 -2.417943e+002 7.472530e-014
      vertex   3.973800e+002 -2.417943e+002 1.600000e+000
      vertex   3.975832e+002 -2.422984e+002 1.600000e+000
    endloop
  endfacet
  facet normal 9.116786e-001 4.109040e-001 -0.000000e+000
    outer loop
      vertex   3.975832e+002 -2.422984e+002 7.460167e-014
      vertex   3.975832e+002 -2.422984e+002 1.600000e+000
      vertex   3.978065e+002 -2.427938e+002 1.600000e+000
    endloop
  endfacet
  facet normal 8.944023e-001 4.472634e-001 -0.000000e+000
    outer loop
      vertex   3.978065e+002 -2.427938e+002 7.447229e-014
      vertex   3.978065e+002 -2.427938e+002 1.600000e+000
      vertex   3.980495e+002 -2.432799e+002 1.600000e+000
    endloop
  endfacet
  facet normal 8.756766e-001 4.828981e-001 -0.000000e+000
    outer loop
      vertex   3.980495e+002 -2.432799e+002 7.433737e-014
      vertex   3.980495e+002 -2.432799e+002 1.600000e+000
      vertex   3.983120e+002 -2.437557e+002 1.600000e+000
    endloop
  endfacet
  facet normal 8.555318e-001 5.177502e-001 -0.000000e+000
    outer loop
      vertex   3.983120e+002 -2.437557e+002 7.419713e-014
      vertex   3.983120e+002 -2.437557e+002 1.600000e+000
      vertex   3.985933e+002 -2.442207e+002 1.600000e+000
    endloop
  endfacet
  facet normal 8.340007e-001 5.517633e-001 -0.000000e+000
    outer loop
      vertex   3.985933e+002 -2.442207e+002 7.405180e-014
      vertex   3.985933e+002 -2.442207e+002 1.600000e+000
      vertex   3.988932e+002 -2.446739e+002 1.600000e+000
    endloop
  endfacet
  facet normal 8.111181e-001 5.848824e-001 -0.000000e+000
    outer loop
      vertex   3.988932e+002 -2.446739e+002 7.390161e-014
      vertex   3.988932e+002 -2.446739e+002 1.600000e+000
      vertex   3.992110e+002 -2.451147e+002 1.600000e+000
    endloop
  endfacet
  facet normal 7.869211e-001 6.170536e-001 -0.000000e+000
    outer loop
      vertex   3.992110e+002 -2.451147e+002 7.374680e-014
      vertex   3.992110e+002 -2.451147e+002 1.600000e+000
      vertex   3.995464e+002 -2.455424e+002 1.600000e+000
    endloop
  endfacet
  facet normal 7.614490e-001 6.482249e-001 -0.000000e+000
    outer loop
      vertex   3.995464e+002 -2.455424e+002 7.358763e-014
      vertex   3.995464e+002 -2.455424e+002 1.600000e+000
      vertex   3.998987e+002 -2.459562e+002 1.600000e+000
    endloop
  endfacet
  facet normal 7.347429e-001 6.783457e-001 -0.000000e+000
    outer loop
      vertex   3.998987e+002 -2.459562e+002 7.342436e-014
      vertex   3.998987e+002 -2.459562e+002 1.600000e+000
      vertex   4.002673e+002 -2.463555e+002 1.600000e+000
    endloop
  endfacet
  facet normal 7.068461e-001 7.073673e-001 -0.000000e+000
    outer loop
      vertex   4.002673e+002 -2.463555e+002 7.325725e-014
      vertex   4.002673e+002 -2.463555e+002 1.600000e+000
      vertex   4.006517e+002 -2.467396e+002 1.600000e+000
    endloop
  endfacet
  facet normal 6.778039e-001 7.352427e-001 -0.000000e+000
    outer loop
      vertex   4.006517e+002 -2.467396e+002 7.308657e-014
      vertex   4.006517e+002 -2.467396e+002 1.600000e+000
      vertex   4.010513e+002 -2.471079e+002 1.600000e+000
    endloop
  endfacet
  facet normal 6.476634e-001 7.619266e-001 -0.000000e+000
    outer loop
      vertex   4.010513e+002 -2.471079e+002 7.291259e-014
      vertex   4.010513e+002 -2.471079e+002 1.600000e+000
      vertex   4.014653e+002 -2.474599e+002 1.600000e+000
    endloop
  endfacet
  facet normal 6.164733e-001 7.873758e-001 -1.398660e-014
    outer loop
      vertex   4.014653e+002 -2.474599e+002 7.273560e-014
      vertex   4.014653e+002 -2.474599e+002 1.600000e+000
      vertex   4.018932e+002 -2.477949e+002 1.600000e+000
    endloop
  endfacet
  facet normal 5.842843e-001 8.115490e-001 -0.000000e+000
    outer loop
      vertex   4.018932e+002 -2.477949e+002 7.255589e-014
      vertex   4.018932e+002 -2.477949e+002 1.600000e+000
      vertex   4.023343e+002 -2.481125e+002 1.600000e+000
    endloop
  endfacet
  facet normal 5.511484e-001 8.344072e-001 -0.000000e+000
    outer loop
      vertex   4.023343e+002 -2.481125e+002 7.237374e-014
      vertex   4.023343e+002 -2.481125e+002 1.600000e+000
      vertex   4.027877e+002 -2.484120e+002 1.600000e+000
    endloop
  endfacet
  facet normal 5.171194e-001 8.559132e-001 -0.000000e+000
    outer loop
      vertex   4.027877e+002 -2.484120e+002 7.218946e-014
      vertex   4.027877e+002 -2.484120e+002 1.600000e+000
      vertex   4.032529e+002 -2.486930e+002 1.600000e+000
    endloop
  endfacet
  facet normal 4.822525e-001 8.760323e-001 -0.000000e+000
    outer loop
      vertex   4.032529e+002 -2.486930e+002 7.200333e-014
      vertex   4.032529e+002 -2.486930e+002 1.600000e+000
      vertex   4.037289e+002 -2.489551e+002 1.600000e+000
    endloop
  endfacet
  facet normal 4.466040e-001 8.947317e-001 -0.000000e+000
    outer loop
      vertex   4.037289e+002 -2.489551e+002 7.181567e-014
      vertex   4.037289e+002 -2.489551e+002 1.600000e+000
      vertex   4.042152e+002 -2.491978e+002 1.600000e+000
    endloop
  endfacet
  facet normal 4.102318e-001 9.119813e-001 -0.000000e+000
    outer loop
      vertex   4.042152e+002 -2.491978e+002 7.162678e-014
      vertex   4.042152e+002 -2.491978e+002 1.600000e+000
      vertex   4.047108e+002 -2.494207e+002 1.600000e+000
    endloop
  endfacet
  facet normal 3.731949e-001 9.277530e-001 -0.000000e+000
    outer loop
      vertex   4.047108e+002 -2.494207e+002 7.143695e-014
      vertex   4.047108e+002 -2.494207e+002 1.600000e+000
      vertex   4.052150e+002 -2.496235e+002 1.600000e+000
    endloop
  endfacet
  facet normal 3.355532e-001 9.420213e-001 -0.000000e+000
    outer loop
      vertex   4.052150e+002 -2.496235e+002 7.124651e-014
      vertex   4.052150e+002 -2.496235e+002 1.600000e+000
      vertex   4.057269e+002 -2.498059e+002 1.600000e+000
    endloop
  endfacet
  facet normal 2.973677e-001 9.547630e-001 -0.000000e+000
    outer loop
      vertex   4.057269e+002 -2.498059e+002 7.105576e-014
      vertex   4.057269e+002 -2.498059e+002 1.600000e+000
      vertex   4.062458e+002 -2.499675e+002 1.600000e+000
    endloop
  endfacet
  facet normal 2.587004e-001 9.659576e-001 -0.000000e+000
    outer loop
      vertex   4.062458e+002 -2.499675e+002 7.086500e-014
      vertex   4.062458e+002 -2.499675e+002 1.600000e+000
      vertex   4.067707e+002 -2.501081e+002 1.600000e+000
    endloop
  endfacet
  facet normal 2.196138e-001 9.755869e-001 -0.000000e+000
    outer loop
      vertex   4.067707e+002 -2.501081e+002 7.067455e-014
      vertex   4.067707e+002 -2.501081e+002 1.600000e+000
      vertex   4.073009e+002 -2.502274e+002 1.600000e+000
    endloop
  endfacet
  facet normal 1.801714e-001 9.836352e-001 -0.000000e+000
    outer loop
      vertex   4.073009e+002 -2.502274e+002 7.048471e-014
      vertex   4.073009e+002 -2.502274e+002 1.600000e+000
      vertex   4.078355e+002 -2.503253e+002 1.600000e+000
    endloop
  endfacet
  facet normal 1.404370e-001 9.900896e-001 -0.000000e+000
    outer loop
      vertex   4.078355e+002 -2.503253e+002 7.029580e-014
      vertex   4.078355e+002 -2.503253e+002 1.600000e+000
      vertex   4.083735e+002 -2.504017e+002 1.600000e+000
    endloop
  endfacet
  facet normal 1.004750e-001 9.949396e-001 -0.000000e+000
    outer loop
      vertex   4.083735e+002 -2.504017e+002 7.010812e-014
      vertex   4.083735e+002 -2.504017e+002 1.600000e+000
      vertex   4.089142e+002 -2.504563e+002 1.600000e+000
    endloop
  endfacet
  facet normal 6.035020e-002 9.981773e-001 -0.000000e+000
    outer loop
      vertex   4.089142e+002 -2.504563e+002 6.992197e-014
      vertex   4.089142e+002 -2.504563e+002 1.600000e+000
      vertex   4.094567e+002 -2.504891e+002 1.600000e+000
    endloop
  endfacet
  facet normal 2.012760e-002 9.997974e-001 -0.000000e+000
    outer loop
      vertex   4.094567e+002 -2.504891e+002 6.973765e-014
      vertex   4.094567e+002 -2.504891e+002 1.600000e+000
      vertex   4.100000e+002 -2.505000e+002 1.600000e+000
    endloop
  endfacet
  facet normal 2.012760e-002 9.997974e-001 0.000000e+000
    outer loop
      vertex   4.100000e+002 -2.505000e+002 7.105427e-014
      vertex   4.094567e+002 -2.504891e+002 6.973765e-014
      vertex   4.100000e+002 -2.505000e+002 1.600000e+000
    endloop
  endfacet
  facet normal 9.835022e-001 1.808964e-001 0.000000e+000
    outer loop
      vertex   3.966763e+002 -2.391744e+002 7.525057e-014
      vertex   3.967746e+002 -2.397088e+002 1.600000e+000
      vertex   3.967746e+002 -2.397088e+002 7.515849e-014
    endloop
  endfacet
  facet normal 9.754247e-001 2.203329e-001 0.000000e+000
    outer loop
      vertex   3.967746e+002 -2.397088e+002 7.515849e-014
      vertex   3.968943e+002 -2.402389e+002 1.600000e+000
      vertex   3.968943e+002 -2.402389e+002 7.505975e-014
    endloop
  endfacet
  facet normal 9.657667e-001 2.594123e-001 0.000000e+000
    outer loop
      vertex   3.968943e+002 -2.402389e+002 7.505975e-014
      vertex   3.970353e+002 -2.407638e+002 1.600000e+000
      vertex   3.970353e+002 -2.407638e+002 7.495453e-014
    endloop
  endfacet
  facet normal 9.545436e-001 2.980714e-001 0.000000e+000
    outer loop
      vertex   3.970353e+002 -2.407638e+002 7.495453e-014
      vertex   3.971973e+002 -2.412825e+002 1.600000e+000
      vertex   3.971973e+002 -2.412825e+002 7.484299e-014
    endloop
  endfacet
  facet normal 9.417737e-001 3.362475e-001 0.000000e+000
    outer loop
      vertex   3.971973e+002 -2.412825e+002 7.484299e-014
      vertex   3.973800e+002 -2.417943e+002 1.600000e+000
      vertex   3.973800e+002 -2.417943e+002 7.472530e-014
    endloop
  endfacet
  facet normal 9.274776e-001 3.738787e-001 0.000000e+000
    outer loop
      vertex   3.973800e+002 -2.417943e+002 7.472530e-014
      vertex   3.975832e+002 -2.422984e+002 1.600000e+000
      vertex   3.975832e+002 -2.422984e+002 7.460167e-014
    endloop
  endfacet
  facet normal 9.116786e-001 4.109040e-001 0.000000e+000
    outer loop
      vertex   3.975832e+002 -2.422984e+002 7.460167e-014
      vertex   3.978065e+002 -2.427938e+002 1.600000e+000
      vertex   3.978065e+002 -2.427938e+002 7.447229e-014
    endloop
  endfacet
  facet normal 8.944023e-001 4.472634e-001 0.000000e+000
    outer loop
      vertex   3.978065e+002 -2.427938e+002 7.447229e-014
      vertex   3.980495e+002 -2.432799e+002 1.600000e+000
      vertex   3.980495e+002 -2.432799e+002 7.433737e-014
    endloop
  endfacet
  facet normal 8.756766e-001 4.828981e-001 0.000000e+000
    outer loop
      vertex   3.980495e+002 -2.432799e+002 7.433737e-014
      vertex   3.983120e+002 -2.437557e+002 1.600000e+000
      vertex   3.983120e+002 -2.437557e+002 7.419713e-014
    endloop
  endfacet
  facet normal 8.555318e-001 5.177502e-001 0.000000e+000
    outer loop
      vertex   3.983120e+002 -2.437557e+002 7.419713e-014
      vertex   3.985933e+002 -2.442207e+002 1.600000e+000
      vertex   3.985933e+002 -2.442207e+002 7.405180e-014
    endloop
  endfacet
  facet normal 8.340007e-001 5.517633e-001 0.000000e+000
    outer loop
      vertex   3.985933e+002 -2.442207e+002 7.405180e-014
      vertex   3.988932e+002 -2.446739e+002 1.600000e+000
      vertex   3.988932e+002 -2.446739e+002 7.390161e-014
    endloop
  endfacet
  facet normal 8.111181e-001 5.848824e-001 0.000000e+000
    outer loop
      vertex   3.988932e+002 -2.446739e+002 7.390161e-014
      vertex   3.992110e+002 -2.451147e+002 1.600000e+000
      vertex   3.992110e+002 -2.451147e+002 7.374680e-014
    endloop
  endfacet
  facet normal 7.869211e-001 6.170536e-001 0.000000e+000
    outer loop
      vertex   3.992110e+002 -2.451147e+002 7.374680e-014
      vertex   3.995464e+002 -2.455424e+002 1.600000e+000
      vertex   3.995464e+002 -2.455424e+002 7.358763e-014
    endloop
  endfacet
  facet normal 7.614490e-001 6.482249e-001 0.000000e+000
    outer loop
      vertex   3.995464e+002 -2.455424e+002 7.358763e-014
      vertex   3.998987e+002 -2.459562e+002 1.600000e+000
      vertex   3.998987e+002 -2.459562e+002 7.342436e-014
    endloop
  endfacet
  facet normal 7.347429e-001 6.783457e-001 0.000000e+000
    outer loop
      vertex   3.998987e+002 -2.459562e+002 7.342436e-014
      vertex   4.002673e+002 -2.463555e+002 1.600000e+000
      vertex   4.002673e+002 -2.463555e+002 7.325725e-014
    endloop
  endfacet
  facet normal 7.068461e-001 7.073673e-001 0.000000e+000
    outer loop
      vertex   4.002673e+002 -2.463555e+002 7.325725e-014
      vertex   4.006517e+002 -2.467396e+002 1.600000e+000
      vertex   4.006517e+002 -2.467396e+002 7.308657e-014
    endloop
  endfacet
  facet normal 6.778039e-001 7.352427e-001 0.000000e+000
    outer loop
      vertex   4.006517e+002 -2.467396e+002 7.308657e-014
      vertex   4.010513e+002 -2.471079e+002 1.600000e+000
      vertex   4.010513e+002 -2.471079e+002 7.291259e-014
    endloop
  endfacet
  facet normal 6.476634e-001 7.619266e-001 -1.353453e-014
    outer loop
      vertex   4.010513e+002 -2.471079e+002 7.291259e-014
      vertex   4.014653e+002 -2.474599e+002 1.600000e+000
      vertex   4.014653e+002 -2.474599e+002 7.273560e-014
    endloop
  endfacet
  facet normal 6.164733e-001 7.873758e-001 0.000000e+000
    outer loop
      vertex   4.014653e+002 -2.474599e+002 7.273560e-014
      vertex   4.018932e+002 -2.477949e+002 1.600000e+000
      vertex   4.018932e+002 -2.477949e+002 7.255589e-014
    endloop
  endfacet
  facet normal 5.842843e-001 8.115490e-001 0.000000e+000
    outer loop
      vertex   4.018932e+002 -2.477949e+002 7.255589e-014
      vertex   4.023343e+002 -2.481125e+002 1.600000e+000
      vertex   4.023343e+002 -2.481125e+002 7.237374e-014
    endloop
  endfacet
  facet normal 5.511484e-001 8.344072e-001 0.000000e+000
    outer loop
      vertex   4.023343e+002 -2.481125e+002 7.237374e-014
      vertex   4.027877e+002 -2.484120e+002 1.600000e+000
      vertex   4.027877e+002 -2.484120e+002 7.218946e-014
    endloop
  endfacet
  facet normal 5.171194e-001 8.559132e-001 0.000000e+000
    outer loop
      vertex   4.027877e+002 -2.484120e+002 7.218946e-014
      vertex   4.032529e+002 -2.486930e+002 1.600000e+000
      vertex   4.032529e+002 -2.486930e+002 7.200333e-014
    endloop
  endfacet
  facet normal 4.822525e-001 8.760323e-001 0.000000e+000
    outer loop
      vertex   4.032529e+002 -2.486930e+002 7.200333e-014
      vertex   4.037289e+002 -2.489551e+002 1.600000e+000
      vertex   4.037289e+002 -2.489551e+002 7.181567e-014
    endloop
  endfacet
  facet normal 4.466040e-001 8.947317e-001 0.000000e+000
    outer loop
      vertex   4.037289e+002 -2.489551e+002 7.181567e-014
      vertex   4.042152e+002 -2.491978e+002 1.600000e+000
      vertex   4.042152e+002 -2.491978e+002 7.162678e-014
    endloop
  endfacet
  facet normal 4.102318e-001 9.119813e-001 0.000000e+000
    outer loop
      vertex   4.042152e+002 -2.491978e+002 7.162678e-014
      vertex   4.047108e+002 -2.494207e+002 1.600000e+000
      vertex   4.047108e+002 -2.494207e+002 7.143695e-014
    endloop
  endfacet
  facet normal 3.731949e-001 9.277530e-001 0.000000e+000
    outer loop
      vertex   4.047108e+002 -2.494207e+002 7.143695e-014
      vertex   4.052150e+002 -2.496235e+002 1.600000e+000
      vertex   4.052150e+002 -2.496235e+002 7.124651e-014
    endloop
  endfacet
  facet normal 3.355532e-001 9.420213e-001 0.000000e+000
    outer loop
      vertex   4.052150e+002 -2.496235e+002 7.124651e-014
      vertex   4.057269e+002 -2.498059e+002 1.600000e+000
      vertex   4.057269e+002 -2.498059e+002 7.105576e-014
    endloop
  endfacet
  facet normal 2.973677e-001 9.547630e-001 0.000000e+000
    outer loop
      vertex   4.057269e+002 -2.498059e+002 7.105576e-014
      vertex   4.062458e+002 -2.499675e+002 1.600000e+000
      vertex   4.062458e+002 -2.499675e+002 7.086500e-014
    endloop
  endfacet
  facet normal 2.587004e-001 9.659576e-001 0.000000e+000
    outer loop
      vertex   4.062458e+002 -2.499675e+002 7.086500e-014
      vertex   4.067707e+002 -2.501081e+002 1.600000e+000
      vertex   4.067707e+002 -2.501081e+002 7.067455e-014
    endloop
  endfacet
  facet normal 2.196138e-001 9.755869e-001 0.000000e+000
    outer loop
      vertex   4.067707e+002 -2.501081e+002 7.067455e-014
      vertex   4.073009e+002 -2.502274e+002 1.600000e+000
      vertex   4.073009e+002 -2.502274e+002 7.048471e-014
    endloop
  endfacet
  facet normal 1.801714e-001 9.836352e-001 0.000000e+000
    outer loop
      vertex   4.073009e+002 -2.502274e+002 7.048471e-014
      vertex   4.078355e+002 -2.503253e+002 1.600000e+000
      vertex   4.078355e+002 -2.503253e+002 7.029580e-014
    endloop
  endfacet
  facet normal 1.404370e-001 9.900896e-001 0.000000e+000
    outer loop
      vertex   4.078355e+002 -2.503253e+002 7.029580e-014
      vertex   4.083735e+002 -2.504017e+002 1.600000e+000
      vertex   4.083735e+002 -2.504017e+002 7.010812e-014
    endloop
  endfacet
  facet normal 1.004750e-001 9.949396e-001 0.000000e+000
    outer loop
      vertex   4.083735e+002 -2.504017e+002 7.010812e-014
      vertex   4.089142e+002 -2.504563e+002 1.600000e+000
      vertex   4.089142e+002 -2.504563e+002 6.992197e-014
    endloop
  endfacet
  facet normal 6.035020e-002 9.981773e-001 0.000000e+000
    outer loop
      vertex   4.089142e+002 -2.504563e+002 6.992197e-014
      vertex   4.094567e+002 -2.504891e+002 1.600000e+000
      vertex   4.094567e+002 -2.504891e+002 6.973765e-014
    endloop
  endfacet
  facet normal 0.000000e+000 1.000000e+000 -0.000000e+000
    outer loop
      vertex   4.210000e+002 -2.505000e+002 7.105427e-014
      vertex   4.100000e+002 -2.505000e+002 7.105427e-014
      vertex   4.210000e+002 -2.505000e+002 1.600000e+000
    endloop
  endfacet
  facet normal 0.000000e+000 1.000000e+000 -0.000000e+000
    outer loop
      vertex   4.210000e+002 -2.505000e+002 1.600000e+000
      vertex   4.100000e+002 -2.505000e+002 7.105427e-014
      vertex   4.100000e+002 -2.505000e+002 1.600000e+000
    endloop
  endfacet
  facet normal -1.000000e+000 1.495879e-015 0.000000e+000
    outer loop
      vertex   3.565000e+002 -2.740000e+002 1.600000e+000
      vertex   3.565000e+002 -2.360000e+002 1.600000e+000
      vertex   3.565000e+002 -2.740000e+002 7.105427e-014
    endloop
  endfacet
  facet normal -1.000000e+000 1.495879e-015 0.000000e+000
    outer loop
      vertex   3.565000e+002 -2.740000e+002 7.105427e-014
      vertex   3.565000e+002 -2.360000e+002 1.600000e+000
      vertex   3.565000e+002 -2.360000e+002 7.105427e-014
    endloop
  endfacet
  facet normal -0.000000e+000 -1.000000e+000 -0.000000e+000
    outer loop
      vertex   4.235000e+002 -2.740000e+002 1.600000e+000
      vertex   3.900000e+002 -2.740000e+002 1.600000e+000
      vertex   4.235000e+002 -2.740000e+002 7.105427e-014
    endloop
  endfacet
  facet normal -0.000000e+000 -1.000000e+000 -0.000000e+000
    outer loop
      vertex   4.235000e+002 -2.740000e+002 7.105427e-014
      vertex   3.900000e+002 -2.740000e+002 1.600000e+000
      vertex   3.900000e+002 -2.740000e+002 1.396105e-013
    endloop
  endfacet
  facet normal 0.000000e+000 -1.000000e+000 0.000000e+000
    outer loop
      vertex   3.900000e+002 -2.740000e+002 1.396105e-013
      vertex   3.900000e+002 -2.740000e+002 1.600000e+000
      vertex   3.565000e+002 -2.740000e+002 1.600000e+000
    endloop
  endfacet
  facet normal 0.000000e+000 -1.000000e+000 0.000000e+000
    outer loop
      vertex   3.565000e+002 -2.740000e+002 7.105427e-014
      vertex   3.900000e+002 -2.740000e+002 1.396105e-013
      vertex   3.565000e+002 -2.740000e+002 1.600000e+000
    endloop
  endfacet
  facet normal -6.305791e-012 -1.606030e-012 1.000000e+000
    outer loop
      vertex   3.965578e+002 -2.383841e+002 1.600000e+000
      vertex   3.964947e+002 -2.381364e+002 1.600000e+000
      vertex   3.965995e+002 -2.386364e+002 1.600000e+000
    endloop
  endfacet
  facet normal -2.053685e-012 -7.141049e-013 1.000000e+000
    outer loop
      vertex   3.965995e+002 -2.386364e+002 1.600000e+000
      vertex   3.964947e+002 -2.381364e+002 1.600000e+000
      vertex   3.964107e+002 -2.378949e+002 1.600000e+000
    endloop
  endfacet
  facet normal -9.963291e-013 -4.448056e-013 1.000000e+000
    outer loop
      vertex   3.963065e+002 -2.376614e+002 1.600000e+000
      vertex   3.965995e+002 -2.386364e+002 1.600000e+000
      vertex   3.964107e+002 -2.378949e+002 1.600000e+000
    endloop
  endfacet
  facet normal -5.717580e-013 -3.171759e-013 1.000000e+000
    outer loop
      vertex   3.963065e+002 -2.376614e+002 1.600000e+000
      vertex   3.961827e+002 -2.374376e+002 1.600000e+000
      vertex   3.965995e+002 -2.386364e+002 1.600000e+000
    endloop
  endfacet
  facet normal -3.638799e-013 -2.448928e-013 1.000000e+000
    outer loop
      vertex   3.965995e+002 -2.386364e+002 1.600000e+000
      vertex   3.961827e+002 -2.374376e+002 1.600000e+000
      vertex   3.960404e+002 -2.372252e+002 1.600000e+000
    endloop
  endfacet
  facet normal -2.485080e-013 -1.991769e-013 1.000000e+000
    outer loop
      vertex   3.958805e+002 -2.370257e+002 1.600000e+000
      vertex   3.965995e+002 -2.386364e+002 1.600000e+000
      vertex   3.960404e+002 -2.372252e+002 1.600000e+000
    endloop
  endfacet
  facet normal -1.744664e-013 -1.661215e-013 1.000000e+000
    outer loop
      vertex   3.958805e+002 -2.370257e+002 1.600000e+000
      vertex   3.957042e+002 -2.368406e+002 1.600000e+000
      vertex   3.965995e+002 -2.386364e+002 1.600000e+000
    endloop
  endfacet
  facet normal -1.254207e-013 -1.416677e-013 1.000000e+000
    outer loop
      vertex   3.965995e+002 -2.386364e+002 1.600000e+000
      vertex   3.957042e+002 -2.368406e+002 1.600000e+000
      vertex   3.955127e+002 -2.366711e+002 1.600000e+000
    endloop
  endfacet
  facet normal -9.132196e-014 -1.228111e-013 1.000000e+000
    outer loop
      vertex   3.953076e+002 -2.365185e+002 1.600000e+000
      vertex   3.965995e+002 -2.386364e+002 1.600000e+000
      vertex   3.955127e+002 -2.366711e+002 1.600000e+000
    endloop
  endfacet
  facet normal -6.342252e-014 -1.057912e-013 1.000000e+000
    outer loop
      vertex   3.953076e+002 -2.365185e+002 1.600000e+000
      vertex   3.950902e+002 -2.363840e+002 1.600000e+000
      vertex   3.965995e+002 -2.386364e+002 1.600000e+000
    endloop
  endfacet
  facet normal -4.853714e-014 -9.581607e-014 1.000000e+000
    outer loop
      vertex   3.965995e+002 -2.386364e+002 1.600000e+000
      vertex   3.950902e+002 -2.363840e+002 1.600000e+000
      vertex   3.948621e+002 -2.362684e+002 1.600000e+000
    endloop
  endfacet
  facet normal -3.452440e-014 -8.553414e-014 1.000000e+000
    outer loop
      vertex   3.946250e+002 -2.361727e+002 1.600000e+000
      vertex   3.965995e+002 -2.386364e+002 1.600000e+000
      vertex   3.948621e+002 -2.362684e+002 1.600000e+000
    endloop
  endfacet
  facet normal -2.361898e-014 -7.679354e-014 1.000000e+000
    outer loop
      vertex   3.946250e+002 -2.361727e+002 1.600000e+000
      vertex   3.943806e+002 -2.360976e+002 1.600000e+000
      vertex   3.965995e+002 -2.386364e+002 1.600000e+000
    endloop
  endfacet
  facet normal -1.498659e-014 -6.924864e-014 1.000000e+000
    outer loop
      vertex   3.965995e+002 -2.386364e+002 1.600000e+000
      vertex   3.943806e+002 -2.360976e+002 1.600000e+000
      vertex   3.941307e+002 -2.360435e+002 1.600000e+000
    endloop
  endfacet
  facet normal -7.057635e-015 -6.169894e-014 1.000000e+000
    outer loop
      vertex   3.938771e+002 -2.360109e+002 1.600000e+000
      vertex   3.965995e+002 -2.386364e+002 1.600000e+000
      vertex   3.941307e+002 -2.360435e+002 1.600000e+000
    endloop
  endfacet
  facet normal 6.957364e-014 1.776251e-014 1.000000e+000
    outer loop
      vertex   3.938771e+002 -2.360109e+002 1.600000e+000
      vertex   3.966763e+002 -2.391744e+002 1.600000e+000
      vertex   3.965995e+002 -2.386364e+002 1.600000e+000
    endloop
  endfacet
  facet normal -4.651360e-015 -4.791435e-014 1.000000e+000
    outer loop
      vertex   3.938771e+002 -2.360109e+002 1.600000e+000
      vertex   3.936217e+002 -2.360000e+002 1.600000e+000
      vertex   3.966763e+002 -2.391744e+002 1.600000e+000
    endloop
  endfacet
  facet normal 5.580924e-014 1.026504e-014 1.000000e+000
    outer loop
      vertex   3.966763e+002 -2.391744e+002 1.600000e+000
      vertex   3.936217e+002 -2.360000e+002 1.600000e+000
      vertex   3.967746e+002 -2.397088e+002 1.600000e+000
    endloop
  endfacet
  facet normal 5.888908e-014 1.288322e-014 1.000000e+000
    outer loop
      vertex   3.967746e+002 -2.397088e+002 1.600000e+000
      vertex   3.936217e+002 -2.360000e+002 1.600000e+000
      vertex   3.968943e+002 -2.402389e+002 1.600000e+000
    endloop
  endfacet
  facet normal 6.387833e-014 1.673514e-014 1.000000e+000
    outer loop
      vertex   3.968943e+002 -2.402389e+002 1.600000e+000
      vertex   3.936217e+002 -2.360000e+002 1.600000e+000
      vertex   3.970353e+002 -2.407638e+002 1.600000e+000
    endloop
  endfacet
  facet normal 7.288110e-014 2.318633e-014 1.000000e+000
    outer loop
      vertex   3.970353e+002 -2.407638e+002 1.600000e+000
      vertex   3.936217e+002 -2.360000e+002 1.600000e+000
      vertex   3.971973e+002 -2.412825e+002 1.600000e+000
    endloop
  endfacet
  facet normal 8.038811e-014 2.826763e-014 1.000000e+000
    outer loop
      vertex   3.971973e+002 -2.412825e+002 1.600000e+000
      vertex   3.936217e+002 -2.360000e+002 1.600000e+000
      vertex   3.973800e+002 -2.417943e+002 1.600000e+000
    endloop
  endfacet
  facet normal 9.544797e-014 3.803582e-014 1.000000e+000
    outer loop
      vertex   3.973800e+002 -2.417943e+002 1.600000e+000
      vertex   3.936217e+002 -2.360000e+002 1.600000e+000
      vertex   3.975832e+002 -2.422984e+002 1.600000e+000
    endloop
  endfacet
  facet normal 3.028435e-014 -2.950582e-015 1.000000e+000
    outer loop
      vertex   3.975832e+002 -2.422984e+002 1.600000e+000
      vertex   3.936217e+002 -2.360000e+002 1.600000e+000
      vertex   3.900000e+002 -2.740000e+002 1.600000e+000
    endloop
  endfacet
  facet normal 5.823373e-015 2.912092e-015 1.000000e+000
    outer loop
      vertex   3.978065e+002 -2.427938e+002 1.600000e+000
      vertex   3.900000e+002 -2.740000e+002 1.600000e+000
      vertex   3.980495e+002 -2.432799e+002 1.600000e+000
    endloop
  endfacet
  facet normal 6.872928e-015 2.649537e-015 1.000000e+000
    outer loop
      vertex   3.978065e+002 -2.427938e+002 1.600000e+000
      vertex   3.975832e+002 -2.422984e+002 1.600000e+000
      vertex   3.900000e+002 -2.740000e+002 1.600000e+000
    endloop
  endfacet
  facet normal 0.000000e+000 -6.427607e-017 1.000000e+000
    outer loop
      vertex   3.936217e+002 -2.360000e+002 1.600000e+000
      vertex   3.565000e+002 -2.360000e+002 1.600000e+000
      vertex   3.900000e+002 -2.740000e+002 1.600000e+000
    endloop
  endfacet
  facet normal 7.291017e-017 -1.090648e-031 1.000000e+000
    outer loop
      vertex   3.900000e+002 -2.740000e+002 1.600000e+000
      vertex   3.565000e+002 -2.360000e+002 1.600000e+000
      vertex   3.565000e+002 -2.740000e+002 1.600000e+000
    endloop
  endfacet
  facet normal 4.169136e-015 2.710045e-015 1.000000e+000
    outer loop
      vertex   4.235000e+002 -2.740000e+002 1.600000e+000
      vertex   4.083735e+002 -2.504017e+002 1.600000e+000
      vertex   3.900000e+002 -2.740000e+002 1.600000e+000
    endloop
  endfacet
  facet normal 4.431518e-016 3.216967e-016 1.000000e+000
    outer loop
      vertex   4.235000e+002 -2.740000e+002 1.600000e+000
      vertex   4.089142e+002 -2.504563e+002 1.600000e+000
      vertex   4.083735e+002 -2.504017e+002 1.600000e+000
    endloop
  endfacet
  facet normal 4.282237e-016 3.124485e-016 1.000000e+000
    outer loop
      vertex   4.235000e+002 -2.740000e+002 1.600000e+000
      vertex   4.094567e+002 -2.504891e+002 1.600000e+000
      vertex   4.089142e+002 -2.504563e+002 1.600000e+000
    endloop
  endfacet
  facet normal -2.480707e-015 -1.425087e-015 1.000000e+000
    outer loop
      vertex   4.235000e+002 -2.740000e+002 1.600000e+000
      vertex   4.100000e+002 -2.505000e+002 1.600000e+000
      vertex   4.094567e+002 -2.504891e+002 1.600000e+000
    endloop
  endfacet
  facet normal 0.000000e+000 -0.000000e+000 1.000000e+000
    outer loop
      vertex   4.235000e+002 -2.740000e+002 1.600000e+000
      vertex   4.235000e+002 -2.530000e+002 1.600000e+000
      vertex   4.100000e+002 -2.505000e+002 1.600000e+000
    endloop
  endfacet
  facet normal -1.291896e-014 -6.976238e-014 1.000000e+000
    outer loop
      vertex   4.100000e+002 -2.505000e+002 1.600000e+000
      vertex   4.235000e+002 -2.530000e+002 1.600000e+000
      vertex   4.210000e+002 -2.505000e+002 1.600000e+000
    endloop
  endfacet
  facet normal -4.773950e-015 -6.161737e-014 1.000000e+000
    outer loop
      vertex   4.210000e+002 -2.505000e+002 1.600000e+000
      vertex   4.235000e+002 -2.530000e+002 1.600000e+000
      vertex   4.212307e+002 -2.505107e+002 1.600000e+000
    endloop
  endfacet
  facet normal -9.151992e-015 -6.560848e-014 1.000000e+000
    outer loop
      vertex   4.212307e+002 -2.505107e+002 1.600000e+000
      vertex   4.235000e+002 -2.530000e+002 1.600000e+000
      vertex   4.214594e+002 -2.505426e+002 1.600000e+000
    endloop
  endfacet
  facet normal -1.695493e-014 -7.208796e-014 1.000000e+000
    outer loop
      vertex   4.214594e+002 -2.505426e+002 1.600000e+000
      vertex   4.235000e+002 -2.530000e+002 1.600000e+000
      vertex   4.216842e+002 -2.505954e+002 1.600000e+000
    endloop
  endfacet
  facet normal -2.524576e-014 -7.834890e-014 1.000000e+000
    outer loop
      vertex   4.216842e+002 -2.505954e+002 1.600000e+000
      vertex   4.235000e+002 -2.530000e+002 1.600000e+000
      vertex   4.219031e+002 -2.506688e+002 1.600000e+000
    endloop
  endfacet
  facet normal -3.864817e-014 -8.752977e-014 1.000000e+000
    outer loop
      vertex   4.219031e+002 -2.506688e+002 1.600000e+000
      vertex   4.235000e+002 -2.530000e+002 1.600000e+000
      vertex   4.221143e+002 -2.507621e+002 1.600000e+000
    endloop
  endfacet
  facet normal -5.407367e-014 -9.708083e-014 1.000000e+000
    outer loop
      vertex   4.221143e+002 -2.507621e+002 1.600000e+000
      vertex   4.235000e+002 -2.530000e+002 1.600000e+000
      vertex   4.223161e+002 -2.508745e+002 1.600000e+000
    endloop
  endfacet
  facet normal -7.228488e-014 -1.072244e-013 1.000000e+000
    outer loop
      vertex   4.223161e+002 -2.508745e+002 1.600000e+000
      vertex   4.235000e+002 -2.530000e+002 1.600000e+000
      vertex   4.225066e+002 -2.510050e+002 1.600000e+000
    endloop
  endfacet
  facet normal -1.008487e-013 -1.214475e-013 1.000000e+000
    outer loop
      vertex   4.225066e+002 -2.510050e+002 1.600000e+000
      vertex   4.235000e+002 -2.530000e+002 1.600000e+000
      vertex   4.226842e+002 -2.511525e+002 1.600000e+000
    endloop
  endfacet
  facet normal -1.377339e-013 -1.377339e-013 1.000000e+000
    outer loop
      vertex   4.226842e+002 -2.511525e+002 1.600000e+000
      vertex   4.235000e+002 -2.530000e+002 1.600000e+000
      vertex   4.228475e+002 -2.513158e+002 1.600000e+000
    endloop
  endfacet
  facet normal -1.904694e-013 -1.581637e-013 1.000000e+000
    outer loop
      vertex   4.228475e+002 -2.513158e+002 1.600000e+000
      vertex   4.235000e+002 -2.530000e+002 1.600000e+000
      vertex   4.229950e+002 -2.514934e+002 1.600000e+000
    endloop
  endfacet
  facet normal -2.662838e-013 -1.835742e-013 1.000000e+000
    outer loop
      vertex   4.229950e+002 -2.514934e+002 1.600000e+000
      vertex   4.235000e+002 -2.530000e+002 1.600000e+000
      vertex   4.231255e+002 -2.516839e+002 1.600000e+000
    endloop
  endfacet
  facet normal -3.956736e-013 -2.203888e-013 1.000000e+000
    outer loop
      vertex   4.231255e+002 -2.516839e+002 1.600000e+000
      vertex   4.235000e+002 -2.530000e+002 1.600000e+000
      vertex   4.232379e+002 -2.518857e+002 1.600000e+000
    endloop
  endfacet
  facet normal -6.170586e-013 -2.724580e-013 1.000000e+000
    outer loop
      vertex   4.232379e+002 -2.518857e+002 1.600000e+000
      vertex   4.235000e+002 -2.530000e+002 1.600000e+000
      vertex   4.233312e+002 -2.520969e+002 1.600000e+000
    endloop
  endfacet
  facet normal -1.053037e-012 -3.539564e-013 1.000000e+000
    outer loop
      vertex   4.233312e+002 -2.520969e+002 1.600000e+000
      vertex   4.235000e+002 -2.530000e+002 1.600000e+000
      vertex   4.234046e+002 -2.523158e+002 1.600000e+000
    endloop
  endfacet
  facet normal -2.163593e-012 -5.088724e-013 1.000000e+000
    outer loop
      vertex   4.234046e+002 -2.523158e+002 1.600000e+000
      vertex   4.235000e+002 -2.530000e+002 1.600000e+000
      vertex   4.234574e+002 -2.525406e+002 1.600000e+000
    endloop
  endfacet
  facet normal -6.585168e-012 -9.185917e-013 1.000000e+000
    outer loop
      vertex   4.234574e+002 -2.525406e+002 1.600000e+000
      vertex   4.235000e+002 -2.530000e+002 1.600000e+000
      vertex   4.234893e+002 -2.527693e+002 1.600000e+000
    endloop
  endfacet
  facet normal 1.132442e-015 5.074395e-015 1.000000e+000
    outer loop
      vertex   4.083735e+002 -2.504017e+002 1.600000e+000
      vertex   4.078355e+002 -2.503253e+002 1.600000e+000
      vertex   3.900000e+002 -2.740000e+002 1.600000e+000
    endloop
  endfacet
  facet normal 9.540833e-016 5.208763e-015 1.000000e+000
    outer loop
      vertex   3.900000e+002 -2.740000e+002 1.600000e+000
      vertex   4.078355e+002 -2.503253e+002 1.600000e+000
      vertex   4.073009e+002 -2.502274e+002 1.600000e+000
    endloop
  endfacet
  facet normal 1.501647e-015 4.810264e-015 1.000000e+000
    outer loop
      vertex   4.067707e+002 -2.501081e+002 1.600000e+000
      vertex   3.900000e+002 -2.740000e+002 1.600000e+000
      vertex   4.073009e+002 -2.502274e+002 1.600000e+000
    endloop
  endfacet
  facet normal 1.678089e-015 4.686412e-015 1.000000e+000
    outer loop
      vertex   4.067707e+002 -2.501081e+002 1.600000e+000
      vertex   4.062458e+002 -2.499675e+002 1.600000e+000
      vertex   3.900000e+002 -2.740000e+002 1.600000e+000
    endloop
  endfacet
  facet normal 1.851130e-015 4.569438e-015 1.000000e+000
    outer loop
      vertex   3.900000e+002 -2.740000e+002 1.600000e+000
      vertex   4.062458e+002 -2.499675e+002 1.600000e+000
      vertex   4.057269e+002 -2.498059e+002 1.600000e+000
    endloop
  endfacet
  facet normal 2.021861e-015 4.458457e-015 1.000000e+000
    outer loop
      vertex   4.052150e+002 -2.496235e+002 1.600000e+000
      vertex   3.900000e+002 -2.740000e+002 1.600000e+000
      vertex   4.057269e+002 -2.498059e+002 1.600000e+000
    endloop
  endfacet
  facet normal 2.191306e-015 4.352695e-015 1.000000e+000
    outer loop
      vertex   4.052150e+002 -2.496235e+002 1.600000e+000
      vertex   4.047108e+002 -2.494207e+002 1.600000e+000
      vertex   3.900000e+002 -2.740000e+002 1.600000e+000
    endloop
  endfacet
  facet normal 2.360438e-015 4.251469e-015 1.000000e+000
    outer loop
      vertex   3.900000e+002 -2.740000e+002 1.600000e+000
      vertex   4.047108e+002 -2.494207e+002 1.600000e+000
      vertex   4.042152e+002 -2.491978e+002 1.600000e+000
    endloop
  endfacet
  facet normal 2.175128e-015 4.357678e-015 1.000000e+000
    outer loop
      vertex   4.037289e+002 -2.489551e+002 1.600000e+000
      vertex   3.900000e+002 -2.740000e+002 1.600000e+000
      vertex   4.042152e+002 -2.491978e+002 1.600000e+000
    endloop
  endfacet
  facet normal 2.705302e-015 4.067051e-015 1.000000e+000
    outer loop
      vertex   4.037289e+002 -2.489551e+002 1.600000e+000
      vertex   4.032529e+002 -2.486930e+002 1.600000e+000
      vertex   3.900000e+002 -2.740000e+002 1.600000e+000
    endloop
  endfacet
  facet normal 2.879466e-015 3.975844e-015 1.000000e+000
    outer loop
      vertex   3.900000e+002 -2.740000e+002 1.600000e+000
      vertex   4.032529e+002 -2.486930e+002 1.600000e+000
      vertex   4.027877e+002 -2.484120e+002 1.600000e+000
    endloop
  endfacet
  facet normal 3.057166e-015 3.887038e-015 1.000000e+000
    outer loop
      vertex   4.023343e+002 -2.481125e+002 1.600000e+000
      vertex   3.900000e+002 -2.740000e+002 1.600000e+000
      vertex   4.027877e+002 -2.484120e+002 1.600000e+000
    endloop
  endfacet
  facet normal 2.864581e-015 3.978796e-015 1.000000e+000
    outer loop
      vertex   4.023343e+002 -2.481125e+002 1.600000e+000
      vertex   4.018932e+002 -2.477949e+002 1.600000e+000
      vertex   3.900000e+002 -2.740000e+002 1.600000e+000
    endloop
  endfacet
  facet normal 3.432354e-015 3.721111e-015 1.000000e+000
    outer loop
      vertex   3.900000e+002 -2.740000e+002 1.600000e+000
      vertex   4.018932e+002 -2.477949e+002 1.600000e+000
      vertex   4.014653e+002 -2.474599e+002 1.600000e+000
    endloop
  endfacet
  facet normal 4.019844e-015 3.467314e-015 1.000000e+000
    outer loop
      vertex   4.010513e+002 -2.471079e+002 1.600000e+000
      vertex   3.900000e+002 -2.740000e+002 1.600000e+000
      vertex   4.014653e+002 -2.474599e+002 1.600000e+000
    endloop
  endfacet
  facet normal 3.825706e-015 3.547095e-015 1.000000e+000
    outer loop
      vertex   4.010513e+002 -2.471079e+002 1.600000e+000
      vertex   4.006517e+002 -2.467396e+002 1.600000e+000
      vertex   3.900000e+002 -2.740000e+002 1.600000e+000
    endloop
  endfacet
  facet normal 3.623452e-015 3.626124e-015 1.000000e+000
    outer loop
      vertex   3.900000e+002 -2.740000e+002 1.600000e+000
      vertex   4.006517e+002 -2.467396e+002 1.600000e+000
      vertex   4.002673e+002 -2.463555e+002 1.600000e+000
    endloop
  endfacet
  facet normal 4.269879e-015 3.386038e-015 1.000000e+000
    outer loop
      vertex   3.998987e+002 -2.459562e+002 1.600000e+000
      vertex   3.900000e+002 -2.740000e+002 1.600000e+000
      vertex   4.002673e+002 -2.463555e+002 1.600000e+000
    endloop
  endfacet
  facet normal 4.063175e-015 3.458999e-015 1.000000e+000
    outer loop
      vertex   3.998987e+002 -2.459562e+002 1.600000e+000
      vertex   3.995464e+002 -2.455424e+002 1.600000e+000
      vertex   3.900000e+002 -2.740000e+002 1.600000e+000
    endloop
  endfacet
  facet normal 4.770695e-015 3.221654e-015 1.000000e+000
    outer loop
      vertex   3.900000e+002 -2.740000e+002 1.600000e+000
      vertex   3.995464e+002 -2.455424e+002 1.600000e+000
      vertex   3.992110e+002 -2.451147e+002 1.600000e+000
    endloop
  endfacet
  facet normal 4.560682e-015 3.288624e-015 1.000000e+000
    outer loop
      vertex   3.988932e+002 -2.446739e+002 1.600000e+000
      vertex   3.900000e+002 -2.740000e+002 1.600000e+000
      vertex   3.992110e+002 -2.451147e+002 1.600000e+000
    endloop
  endfacet
  facet normal 5.349676e-015 3.049360e-015 1.000000e+000
    outer loop
      vertex   3.988932e+002 -2.446739e+002 1.600000e+000
      vertex   3.985933e+002 -2.442207e+002 1.600000e+000
      vertex   3.900000e+002 -2.740000e+002 1.600000e+000
    endloop
  endfacet
  facet normal 5.673513e-015 2.955911e-015 1.000000e+000
    outer loop
      vertex   3.900000e+002 -2.740000e+002 1.600000e+000
      vertex   3.985933e+002 -2.442207e+002 1.600000e+000
      vertex   3.983120e+002 -2.437557e+002 1.600000e+000
    endloop
  endfacet
  facet normal 6.029089e-015 2.858189e-015 1.000000e+000
    outer loop
      vertex   3.980495e+002 -2.432799e+002 1.600000e+000
      vertex   3.900000e+002 -2.740000e+002 1.600000e+000
      vertex   3.983120e+002 -2.437557e+002 1.600000e+000
    endloop
  endfacet
endsolid
